<svg version="1.2" xmlns="http://www.w3.org/2000/svg" viewBox="0 0 41 47" width="41" height="47"><style>.a{fill:none;stroke:#267df4;stroke-width:3}</style><path class="a" d="m20.5 10c9.7 0 17.5 7.8 17.5 17.5 0 9.7-7.8 17.5-17.5 17.5-9.7 0-17.5-7.8-17.5-17.5 0-9.7 7.8-17.5 17.5-17.5z"/><path class="a" d="m3.3 15q0-0.1-0.1-0.2c-2.4-4.2-1.1-9.4 3-11.7 4-2.3 9.3-0.9 11.7 3.3q0 0.1 0.1 0.2c0 0-4.4 1-7.9 3-3.8 2.1-6.8 5.4-6.8 5.4z"/><path class="a" d="m30.9 9.6c-3.5-2-7.9-3-7.9-3q0.1-0.1 0.1-0.2c2.4-4.2 7.7-5.6 11.7-3.3 4.1 2.3 5.4 7.5 3 11.7q-0.1 0.1-0.1 0.2c0 0-3-3.3-6.8-5.4z"/><path class="a" d="m12.5 42.4c0.6 0.6 0.6 1.5 0 2.1l-2 2.1c-0.6 0.5-1.5 0.5-2.1 0-0.5-0.6-0.5-1.5 0-2.1l2.1-2.1c0.6-0.5 1.5-0.5 2 0z"/><path class="a" d="m30.5 42.4l2.1 2.1c0.5 0.6 0.5 1.5 0 2-0.6 0.6-1.5 0.6-2.1 0l-2-2c-0.6-0.6-0.6-1.5 0-2.1 0.5-0.5 1.4-0.5 2 0z"/><path class="a" d="m20.5 21c0.8 0 1.5 0.6 1.5 1.4v5.2c0 0.8-0.7 1.4-1.5 1.4-0.8 0-1.5-0.7-1.5-1.5v-5.1c0-0.8 0.7-1.4 1.5-1.4zm0 5h8c0.8 0 1.5 0.7 1.5 1.5 0 0.8-0.7 1.5-1.5 1.5h-8c-0.8 0-1.5-0.6-1.5-1.4 0-0.8 0.7-1.6 1.5-1.6z"/></svg>