<svg version="1.2" xmlns="http://www.w3.org/2000/svg" viewBox="0 0 42 51" width="42" height="51"><style>.a{fill:none;stroke:#267df4;stroke-width:3}</style><path class="a" d="m4 20h34c2.2 0 4 1.8 4 4v23c0 2.2-1.8 4-4 4h-34c-2.2 0-4-1.8-4-4v-23c0-2.2 1.8-4 4-4z"/><path class="a" d="m20 0h2c8.3 0 15 6.7 15 15v8h-32v-8c0-8.3 6.7-15 15-15z"/><path class="a" d="m21 5c6.1 0 11 4.9 11 11v7h-22v-7c0-6.1 4.9-11 11-11z"/><path class="a" d="m13.6 33.4c0.6-0.6 1.5-0.6 2.1 0l4.9 4.9c0.6 0.6 0.6 1.5 0 2.1-0.5 0.6-1.5 0.6-2.1 0l-4.9-4.9c-0.6-0.6-0.6-1.6 0-2.1zm4.9 4.9l7.8-7.8c0.6-0.6 1.5-0.6 2.1 0 0.6 0.6 0.6 1.6 0 2.1l-7.8 7.8c-0.5 0.6-1.5 0.6-2.1 0-0.6-0.6-0.6-1.5 0-2.1z"/></svg>