<svg version="1.2" xmlns="http://www.w3.org/2000/svg" viewBox="0 0 108 35" width="108" height="35"><style>.a{fill:#26272d}</style><path class="a" d="m49 24c0.1 0.2-0.4 1-0.4 1 0 0-0.8 2.4-4.3 2.3-0.5 0-3.9-0.3-2.4-4.9 0.2-0.7 1.2-4.2 2.4-8.1q-0.4 0.1-0.7 0.1-1.8 0-3.3 0c0.3 2.4 0.5 2.9 0.4 5.5 0 1.5-0.3 8.8-2 11.8-1.4 2.6-2.8 3.1-3.7 3.2-0.9 0.2-2.7 0-3.4-1.3-0.8-1.6 0.1-4.5 0.1-4.5l1.9-6c-1 2.1-2.6 4.2-4.5 4.1-2-0.2-2-1.7-2-1.7 0 0-1.2 1.7-3.4 1.7-2.9-0.2-3.1-2.2-3.1-2.2 0 0-2.1 2.2-3.9 2.2-0.7-0.1-1.5-0.1-2.1-0.9-0.7-0.8-0.5-1.9-0.1-3 0.6-1.7 0.9-2.7 1.1-3.6-0.1 0.1-0.8 1.3-2.2 1.4-0.3 0-0.7 0-1 0-0.7 3-2.1 4.6-3.1 5.3-2.3 1.5-6 1.3-7.9-0.9-1.4-1.7-1.9-4.3-0.9-7.9 0.9-3.2 2.7-5.2 3.6-6 2.3-2.3 4.4-2.8 6.6-2.6 1.5 0.2 4 1.2 4.2 3.6q0.7-0.5 1.8-1c3-1.5 6.2-0.7 10.3-0.2 3.8 0.5 7 0.5 10.4 0.3 0.2-0.6 0.4-1.1 0.4-1.1 0 0 1.5-4.7 2.3-7.3 0.4-1.3 0.8-2 1.4-2.4 1-0.6 2.6-0.5 3.2 0.4 0.5 0.6 0.9 2.4-0.6 5-0.7 1.3-2.1 3.8-2.6 4.3l-0.3 0.7q1.8-0.2 3.9-0.6 0.2 0 0.3 0c1.1-3.5 2.2-6.5 2.7-7.2 0.4-0.5 1.7-1.2 2.5-1.6 0.5-0.2 0.7 0.1 0.7 0.1l-2.5 8.1c4.3-0.8 6.4-1.5 6.4-1.5 0 0-0.9 2.4-2.4 3.8-0.6 0.6-2.9 1.2-5.2 1.6-1.3 4-2.1 6.4-2.3 7.2-0.4 1.2-1.7 4.4-0.2 4.5 0.9 0 1.1-1.5 1.4-1.7 0.6-0.5 2.3-0.7 2.5 0zm-5.8-20.8c0.2-0.7 0.8-1.4 1.1-0.7 0.2 0.7-0.3 3.1-1.8 5.3-0.5 0.9-1.5 2.5-1.7 2.8 0.5-1.5 1.9-5.6 2.4-7.4zm-31.5 16.7c-0.2 0-1.2-0.3-1.5-1.6-0.1-1 0.8-1 1.2-0.7 0.8 0.9 0.3 2.3 0.3 2.3zm15.5 2.5c-0.4 1.3-1.1 2.2-1.6 2.5-0.8 0.5-2.2 0.4-2.3-1.1-0.1-0.7 0.2-2 1-3.8 0.8-1.8 1.7-2.8 2.6-2.7 1.2 0.2 1 1.5 1 1.5 0 0.7-0.3 2.1-0.7 3.6zm3 2.7c-1 0-0.4-1.9-0.2-2.5 0.3-0.9 2.1-6.5 2.1-6.5 0 0-2-0.2-2.6 0.3-0.3 0.2-0.9 1.1-0.9 1.1 0 0 0-1.3-1.5-1.4-1.6 0-2.8 0.6-4 1.7-2.9 2.8-2.8 6.2-2.8 6.2 0 0-1.8 1.9-2.8 0.8-0.4-0.4 0.4-2.6 0.8-3.7 0.5-1.7 1.5-5 1.5-5 0 0-2.2-0.1-2.8 0.3-1 0.5-1.7 2.5-2.7 3.3-0.7 0.6-1.6 0.4-1.8 0.3 0 0 0.4-1.2-0.1-2.4-0.6-1.3-2-1.1-2.5-0.8-0.7 0.5-0.8 1.3-0.5 2.2 0.3 0.9 1.3 1.8 2 2-0.2 0.8-0.7 1.9-1.5 2.9-1.5 1.8-3.6 1.7-4.8-0.1-1-1.3-0.7-4.9 0.7-7.9 1.5-3.1 2.9-4 4.5-4.4 1.9-0.4 3.6 0.9 3.1 3v0.3c0 0-0.1 0.2 0 0.3 0.3 0.3 1 0.5 2.2-0.7 1.7-2 6.2-1.5 12.2-0.7 3.5 0.5 5.4 0.6 8.8 0.6l-2 6c-1 2.2-2.5 4.7-4.4 4.8zm7.9 3.7c-1.1 2.6-2 3.3-2.6 3.5-0.7 0.3-1 0.1-1.1-0.3-0.2-0.6 0.2-1.8 0.2-1.8l4.8-15.1c0.8 5-0.2 11.1-1.3 13.7zm60.5-14.6l-1 3.2c1.5-2.3 5.5-2.1 5.3 0-0.2 3.4-2.5 4.3-3.8 4.9-1.5 0.7-2.3 0.6-2.8 0.7 0.1 0 1.7 0 2.2 0.4 1.6 1.1 0.7 2.3 1.6 2.3 0.4 0 0.6-0.6 0.8-1 0.3-0.9 0.9-0.9 0.9-0.9 0 0 1-0.1 1.4-0.1 0.8 0.2 0.4 0.8 0.3 1.2-0.1 0.2-0.5 1-0.7 1.3-0.8 0.9-2.3 1-3.3 1-1.4 0-2.1-0.8-2.1-2.1 0-1.5-1.7-1.5-1.7-1.5l-1.1 3c0 0-0.1 0.6-0.6 0.6-0.6 0-0.9 0-2 0-0.6 0-0.5-0.6-0.5-0.6l1.2-3.4c0 0-2.1 4-4.5 4-0.7 0-1.6 0-2.2-0.8-0.6-0.8-0.4-1.9-0.1-3 0.6-1.8 1.4-3.7 1.2-3.6-1.4 0.6-2.3 0.1-2.5 0-0.6 0.8-1.2 1.2-2.1 1.5-1.4 6.8-6.8 6.7-8.5 4.9-1-1.1-1.1-2.8-0.6-4.6-0.3 0.1-0.7 0.3-1.2 0.3-0.4 0-0.8-0.1-0.9-0.1-0.2 0.9-0.6 2.1-1 2.9-2 3-4.6 2.7-5.7 1.9-0.6-0.5-1.1-1.1-1.5-1.9-0.2 0.4-0.7 1.2-1.8 1.9-1.2 0.8-4.2 1.2-6-1-1.4-1.6-2-4.3-0.9-7.9 0.8-3.2 2.6-5.2 3.5-6 2.1-2 4.7-2.9 6.6-2.8 3.8 0.2 4.7 2.1 4.8 3.5q0.6-0.5 1.4-0.9c3.1-1.5 6.1-0.9 10.1-0.4 5.6 0.7 9.9 0.7 15.3 0 0.2-0.6 0.4-1 0.4-1 0 0 1.5-4.8 2.3-7.3 0.4-1.3 0.8-2.1 1.4-2.5 1-0.6 2.6-0.4 3.2 0.4 0.5 0.6 1 2.1-0.6 5-0.7 1.3-2.1 3.8-2.6 4.4l-0.3 0.5c6.2-1.1 8.1-2.1 8.1-2.1 0 0-0.9 2.5-2.4 4-0.9 0.8-4.7 1.5-7 1.7zm3.3-11.5c0.2-0.8 0.8-1.4 1.1-0.7 0.2 0.7-0.3 3-1.8 5.3-0.5 0.8-1.5 2.4-1.7 2.7 0.5-1.4 1.8-5.6 2.4-7.3zm-37.9 17.9c0 0-0.7-2.2 0-3.4 0.5-1 1.2-0.5 1.3 0.3 0 2-1.3 3.1-1.3 3.1zm17.3-1q-0.3 0-0.7 0c-1.1 0-2.4-0.3-2.5 0.4-0.2 1.5 2.8 1.6 2.8 1.6 0 0.1-0.1 0.2-0.1 0.3-1.1 4-4.2 4-4.6 2.3-0.3-0.9-0.1-2.3 0.6-4 1.3-3 3.1-3.2 3.8-2.6 0.6 0.6 0.7 1.3 0.7 2zm3.3-1c0.1 0-0.9-0.6-0.4-1.6 0.2-0.4 0.9-0.4 1.1 0.1 0.1 0.5-0.2 1.2-0.7 1.5zm9.3 0.1c0 0-1.5 4-3.1 5.5 0 0-1.5 1.6-2 0.7-0.3-0.5 0.7-3.2 1.1-4.3 0.5-1.7 1.4-4.4 1.4-4.4 0 0-2.4-0.3-3.1 0.6-0.1 0.2-0.9 1.3-1.5 1.9-0.7 0.6-1.2 0.5-1.4 0.3 0 0 1.2-1.3 0.5-2.4-0.5-0.8-1.5-0.7-1.9-0.5-0.6 0.3-0.9 0.8-0.7 1.7 0 0.2 0.3 1 0.7 1.3-0.2 0.2-0.5 0.3-1.2 0.3-0.1-1.7-0.8-3.4-3.5-3.5-1.8 0-4.1 1.4-5.2 4-0.1 0.1-0.5 0.6-1.5 0.5-0.4 0-0.7-0.1-0.8-0.4 0.1-2-0.1-3.2-1-3.5-0.3-0.1-1.2-0.1-1.6 0.7-0.4 1 0.1 2.3 0.9 3.3-0.1 0.9-0.2 1.9-0.6 2.7-2.2 3.8-5.4 0.4-5.2-1.1 4.4-6.1 0.4-7.2-0.9-6.5-2.7 1.4-1.1 6.4-0.9 6.9-0.1 1-2.6 2.6-3.9 0.9-1.1-1.3-0.4-5.5 1-8.5 1.5-3 3.7-4.1 5.7-4 1.6 0 2.2 0.8 2.4 1.9 0 0.6-0.1 1.4-0.2 2-0.1 0.3 0.5 1.4 2.5-0.5 2-2 4.6-2.1 10.9-0.9 4.6 0.9 10.2 0.9 14.5 0.9-0.6 1.9-1.4 4.4-1.4 4.4zm6.1 0.9c-1.4 2.7-4 2.3-4 2.3l0.9-2.6c1.1-2.3 4.8-3.1 3.1 0.3z"/></svg>