<svg version="1.2" xmlns="http://www.w3.org/2000/svg" viewBox="0 0 140 12" width="140" height="12"><style>.a{fill:#26272d}</style><path class="a" d="m7.9 11.8l-4.6-7.4h-0.1l0.1 7.4h-2.6v-11.4h3.1l4.5 7.4h0.1l-0.1-7.4h2.7v11.4zm5.4 0v-11.4h7.6v2.3h-5v2.2h4.7v2.2h-4.7v2.3h5.3v2.4zm21.7 0h-2.7l-2.2-7.7h-0.1l-2.2 7.7h-2.7l-3.3-11.4h3l1.8 7.6 2-7.6h2.9l2 7.6h0.1l1.8-7.6h2.8zm4.7-11.3h3.4q0.9 0 1.7 0.2 0.7 0.2 1.3 0.6 0.5 0.3 0.8 0.9 0.3 0.6 0.3 1.5 0 0.8-0.4 1.4-0.3 0.6-0.8 1-0.6 0.4-1.3 0.6-0.8 0.2-1.7 0.2h-1.8v4.9h-1.5zm1.5 1.4h1.8q0.5 0 1 0.1 0.5 0.1 0.8 0.3 0.4 0.2 0.6 0.5 0.2 0.4 0.2 0.9 0 0.5-0.2 0.9-0.2 0.3-0.6 0.5-0.3 0.2-0.8 0.3-0.5 0.1-1.1 0.1h-1.7zm9.6 10h-1.6v-11.3h3.6q0.8 0 1.6 0.2 0.7 0.1 1.2 0.5 0.6 0.4 0.9 1 0.3 0.6 0.3 1.4 0 1.3-0.7 2.1-0.8 0.7-2 0.9l3.2 5.2h-2l-2.8-5h-1.7zm0-10h1.9q0.5 0 1 0.1 0.4 0.1 0.8 0.3 0.3 0.2 0.5 0.5 0.2 0.4 0.2 0.9 0 0.5-0.2 0.9-0.2 0.3-0.5 0.5-0.4 0.2-0.9 0.3-0.5 0.1-1 0.1h-1.8zm19.6 4.3q0 1.3-0.4 2.4-0.5 1.1-1.3 1.9-0.8 0.8-1.9 1.3-1.1 0.4-2.4 0.4-1.3 0-2.4-0.4-1.1-0.5-1.9-1.3-0.8-0.8-1.2-1.9-0.5-1.1-0.5-2.4 0-1.3 0.5-2.4 0.4-1.1 1.2-1.9 0.8-0.7 1.9-1.2 1.1-0.4 2.4-0.4 1.3 0 2.4 0.4 1.1 0.5 1.9 1.2 0.8 0.8 1.3 1.9 0.4 1.1 0.4 2.4zm-2 1.8q-0.3 0.8-0.9 1.5-0.5 0.6-1.3 0.9-0.8 0.4-1.8 0.4-1 0-1.8-0.4-0.7-0.3-1.3-0.9-0.6-0.7-0.9-1.5-0.3-0.8-0.3-1.8 0-0.9 0.3-1.7 0.3-0.8 0.9-1.5 0.5-0.6 1.3-1 0.8-0.3 1.8-0.3 1 0 1.8 0.3 0.8 0.4 1.3 1 0.6 0.7 0.9 1.5 0.3 0.8 0.3 1.7 0 1-0.3 1.8zm7.8 1.9l3.4-9.3h1.7l-4.4 11.3h-1.5l-4.4-11.3h1.7zm8.1 2h-1.5v-11.3h1.5zm2.8-11.3h3.9q1.1 0 2.2 0.3 1 0.3 1.9 1 0.9 0.7 1.4 1.8 0.6 1 0.6 2.5 0 1.5-0.6 2.6-0.5 1-1.4 1.7-0.9 0.7-1.9 1.1-1.1 0.3-2.2 0.3h-3.9zm1.6 1.4h2q1 0 1.9 0.3 0.8 0.2 1.5 0.8 0.6 0.5 0.9 1.3 0.4 0.8 0.4 1.9 0 1-0.4 1.8-0.3 0.8-0.9 1.3-0.7 0.6-1.5 0.8-0.9 0.3-1.9 0.3h-2zm12.2 8.6h5.9v1.4h-7.5v-11.3h7.2v1.4h-5.6v3.3h5.3v1.4h-5.3zm16-0.9v-9h1.6v11.3h-2l-6-9.2v9.2h-1.6v-11.3h2zm14.1 0.5q-0.6 0.9-1.7 1.5-1.1 0.5-2.6 0.5-1.3 0-2.4-0.4-1.1-0.4-1.9-1.2-0.8-0.8-1.2-1.9-0.5-1.1-0.5-2.4 0-1.4 0.5-2.4 0.4-1.1 1.3-1.9 0.8-0.8 1.9-1.2 1.1-0.5 2.4-0.5 0.5 0 1.1 0.2 0.6 0.1 1.2 0.3 0.5 0.2 1 0.5 0.4 0.4 0.7 0.8l-1.2 1q-0.4-0.6-1.2-1-0.8-0.4-1.6-0.4-1 0-1.8 0.4-0.8 0.4-1.4 1-0.5 0.6-0.8 1.4-0.3 0.8-0.3 1.8 0 0.9 0.3 1.8 0.3 0.8 0.8 1.4 0.6 0.6 1.4 1 0.7 0.3 1.7 0.3 1 0 1.8-0.3 0.7-0.4 1.3-1.2zm3.2 0.4h5.9v1.4h-7.5v-11.3h7.2v1.4h-5.6v3.3h5.3v1.4h-5.3z"/></svg>