<svg version="1.2" xmlns="http://www.w3.org/2000/svg" viewBox="0 0 16 20" width="16" height="20"><style>.a{fill:#fff}</style><path class="a" d="m16 14.6c0 0.1-0.4 1.4-1.4 2.8-0.8 1.3-1.7 2.5-3 2.5-1.3 0-1.8-0.8-3.3-0.8-1.5 0-1.9 0.8-3.2 0.8-1.3 0.1-2.3-1.3-3.1-2.5-1.7-2.5-3-7-1.3-10.1 0.9-1.5 2.4-2.4 4.1-2.5 1.3 0 2.5 0.9 3.3 0.9 0.8 0 2.2-1.1 3.8-0.9 0.6 0 2.4 0.2 3.6 2-0.1 0-2.2 1.3-2.2 3.8 0.1 3 2.7 4 2.7 4zm-5.1-11.4c0.6-0.9 1.1-2.1 1-3.2-1 0-2.2 0.7-2.9 1.5-0.7 0.7-1.2 1.9-1.1 3.1 1.1 0 2.3-0.6 3-1.4z"/></svg>